<?xml version="1.0" encoding="UTF-8"?>
<svg version="1.1" xmlns="http://www.w3.org/2000/svg" width="400" height="400">
<path d="M0 0 C1.23391228 -0.01058945 1.23391228 -0.01058945 2.49275208 -0.02139282 C36.44592663 -0.24667095 36.44592663 -0.24667095 51.171875 3.203125 C52.06503418 3.40180176 52.95819336 3.60047852 53.87841797 3.80517578 C80.05158526 9.7223948 105.43787555 20.28134731 127.171875 36.203125 C128.73228516 37.33814453 128.73228516 37.33814453 130.32421875 38.49609375 C137.93010108 44.13609215 144.93699192 50.32606186 151.77490234 56.86914062 C152.96618746 58.00671173 154.17117264 59.12990724 155.37890625 60.25 C187.35060068 90.72403868 210.20998236 140.36129218 211.33300781 184.46582031 C211.35254956 185.98756911 211.36630412 187.50940058 211.375 189.03125 C211.38205963 189.85385818 211.38911926 190.67646637 211.39639282 191.52400208 C211.62167095 225.47717663 211.62167095 225.47717663 208.171875 240.203125 C207.87385986 241.54286377 207.87385986 241.54286377 207.56982422 242.90966797 C201.6526052 269.08283526 191.09365269 294.46912555 175.171875 316.203125 C174.41519531 317.24339844 173.65851563 318.28367187 172.87890625 319.35546875 C167.23890785 326.96135108 161.04893814 333.96824192 154.50585938 340.80615234 C153.36828827 341.99743746 152.24509276 343.20242264 151.125 344.41015625 C120.65096132 376.38185068 71.01370782 399.24123236 26.90917969 400.36425781 C25.38743089 400.38379956 23.86559942 400.39755412 22.34375 400.40625 C21.10983772 400.41683945 21.10983772 400.41683945 19.85099792 400.42764282 C-14.10217663 400.65292095 -14.10217663 400.65292095 -28.828125 397.203125 C-30.16786377 396.90510986 -30.16786377 396.90510986 -31.53466797 396.60107422 C-57.70783526 390.6838552 -83.09412555 380.12490269 -104.828125 364.203125 C-105.86839844 363.44644531 -106.90867187 362.68976563 -107.98046875 361.91015625 C-115.58635108 356.27015785 -122.59324192 350.08018814 -129.43115234 343.53710938 C-130.62243746 342.39953827 -131.82742264 341.27634276 -133.03515625 340.15625 C-165.00685068 309.68221132 -187.86623236 260.04495782 -188.98925781 215.94042969 C-189.00879956 214.41868089 -189.02255412 212.89684942 -189.03125 211.375 C-189.03830963 210.55239182 -189.04536926 209.72978363 -189.05264282 208.88224792 C-189.27792095 174.92907337 -189.27792095 174.92907337 -185.828125 160.203125 C-185.62944824 159.30996582 -185.43077148 158.41680664 -185.22607422 157.49658203 C-179.3088552 131.32341474 -168.74990269 105.93712445 -152.828125 84.203125 C-152.07144531 83.16285156 -151.31476563 82.12257813 -150.53515625 81.05078125 C-144.89515785 73.44489892 -138.70518814 66.43800808 -132.16210938 59.60009766 C-131.02453827 58.40881254 -129.90134276 57.20382736 -128.78125 55.99609375 C-97.01652998 22.67028706 -45.85508406 0.26201706 0 0 Z " fill="#1E1D1E" transform="translate(188.828125,-0.203125)"/>
<path d="M0 0 C12.87 0 25.74 0 39 0 C48.40965635 20.74215553 57.80454137 41.48949845 67.03222656 62.31335449 C72.3126733 74.22805619 77.64361278 86.11925399 83 98 C89.03253156 111.38131025 95.02524976 124.77935275 100.97445679 138.19790649 C105.99306326 149.51516633 111.05676249 160.81148238 116.14508057 172.0975647 C119.43494633 179.39617499 122.71842573 186.69765864 126 194 C126.47037689 195.04613464 126.47037689 195.04613464 126.95025635 196.11340332 C128.85095437 200.34240869 130.74120479 204.5759293 132.625 208.8125 C133.08044189 209.82594482 133.53588379 210.83938965 134.00512695 211.88354492 C134.40820068 212.79467041 134.81127441 213.7057959 135.2265625 214.64453125 C135.57283691 215.42159424 135.91911133 216.19865723 136.27587891 216.99926758 C137 219 137 219 137 222 C137.66 222 138.32 222 139 222 C139.17400833 221.44733963 139.34801666 220.89467926 139.52729797 220.32527161 C141.26939851 214.92977641 143.30635227 209.78770208 145.66796875 204.63671875 C146.01950516 203.86004349 146.37104156 203.08336823 146.73323059 202.28315735 C147.487799 200.61718276 148.24433665 198.95209891 149.00268555 197.2878418 C151.0457197 192.80394385 153.07421017 188.31346002 155.10546875 183.82421875 C155.51932831 182.91074677 155.93318787 181.99727478 156.35958862 181.05612183 C159.95543486 173.11490127 163.50280658 165.15277942 167.0333252 157.18234253 C172.95678051 143.80968773 178.92906012 130.45967954 184.9375 117.125 C190.8292124 104.04909982 196.7085351 90.96784801 202.5625 77.875 C202.90860321 77.10095825 203.25470642 76.3269165 203.61129761 75.52941895 C205.35982065 71.61870647 207.10799722 67.70783925 208.85595703 63.796875 C214.30598039 51.60294461 219.75926194 39.41047159 225.21678162 27.21989441 C227.15785891 22.88357289 229.09559355 18.54577618 231.03125 14.20703125 C231.85407166 12.36714501 232.67697817 10.52729671 233.5 8.6875 C234.03367187 7.48746338 234.03367187 7.48746338 234.578125 6.26318359 C236.88617093 1.11382907 236.88617093 1.11382907 238 0 C250.54 0 263.08 0 276 0 C276 89.1 276 178.2 276 270 C264.12 270 252.24 270 240 270 C239.67 204.66 239.34 139.32 239 72 C229.1 94.275 229.1 94.275 219 117 C210.5 136 210.5 136 206.34375 145.28125 C201.54132603 156.01141842 196.77104074 166.75585079 192 177.5 C183.68461193 196.22471505 175.33520817 214.93394078 166.95751953 233.63085938 C165.32021119 237.28492582 163.68391249 240.9394433 162.04795837 244.59411621 C160.81971722 247.33778995 159.59106569 250.08127974 158.36227417 252.82470703 C157.7935718 254.09451042 157.22498602 255.36436604 156.65652466 256.63427734 C155.88602544 258.35533386 155.1149056 260.07611249 154.34375 261.796875 C153.69696289 263.24078613 153.69696289 263.24078613 153.03710938 264.71386719 C152.38359439 266.15443083 151.70743275 267.58513451 151 269 C142.42 269 133.84 269 125 269 C115.50947684 247.95388614 106.04558389 226.89690129 96.68261719 205.79370117 C92.72486719 196.87433737 88.74868215 187.96361489 84.75 179.0625 C78.8050677 165.82756867 72.91904087 152.56675149 67.03335571 139.3053894 C59.95652976 123.3640161 52.82339267 107.4486217 45.64770508 91.55151367 C45.10936539 90.35813133 45.10936539 90.35813133 44.56015015 89.14064026 C43.89860194 87.67440681 43.23648432 86.20843006 42.57363892 84.74278259 C42.27726532 84.08597 41.98089172 83.42915741 41.67553711 82.75244141 C41.42275497 82.1931192 41.16997284 81.633797 40.90953064 81.05752563 C39.57999254 78.04986585 38.29537107 75.0225325 37 72 C36.67 137.34 36.34 202.68 36 270 C24.12 270 12.24 270 0 270 C0 180.9 0 91.8 0 0 Z " fill="#FC004E" transform="translate(62,66)"/>
</svg>
