<?xml version="1.0" encoding="UTF-8"?>
<svg version="1.1" xmlns="http://www.w3.org/2000/svg" width="500" height="500">
<path d="M0 0 C165 0 330 0 500 0 C500 165 500 330 500 500 C335 500 170 500 0 500 C0 335 0 170 0 0 Z " fill="#1E1D1E" transform="translate(0,0)"/>
<path d="M0 0 C12.87 0 25.74 0 39 0 C48.40965635 20.74215553 57.80454137 41.48949845 67.03222656 62.31335449 C72.3126733 74.22805619 77.64361278 86.11925399 83 98 C89.03253156 111.38131025 95.02524976 124.77935275 100.97445679 138.19790649 C105.99306326 149.51516633 111.05676249 160.81148238 116.14508057 172.0975647 C119.43494633 179.39617499 122.71842573 186.69765864 126 194 C126.47037689 195.04613464 126.47037689 195.04613464 126.95025635 196.11340332 C128.85095437 200.34240869 130.74120479 204.5759293 132.625 208.8125 C133.08044189 209.82594482 133.53588379 210.83938965 134.00512695 211.88354492 C134.40820068 212.79467041 134.81127441 213.7057959 135.2265625 214.64453125 C135.57283691 215.42159424 135.91911133 216.19865723 136.27587891 216.99926758 C137 219 137 219 137 222 C137.66 222 138.32 222 139 222 C139.17400833 221.44733963 139.34801666 220.89467926 139.52729797 220.32527161 C141.26939851 214.92977641 143.30635227 209.78770208 145.66796875 204.63671875 C146.01950516 203.86004349 146.37104156 203.08336823 146.73323059 202.28315735 C147.487799 200.61718276 148.24433665 198.95209891 149.00268555 197.2878418 C151.0457197 192.80394385 153.07421017 188.31346002 155.10546875 183.82421875 C155.51932831 182.91074677 155.93318787 181.99727478 156.35958862 181.05612183 C159.95543486 173.11490127 163.50280658 165.15277942 167.0333252 157.18234253 C172.95678051 143.80968773 178.92906012 130.45967954 184.9375 117.125 C190.8292124 104.04909982 196.7085351 90.96784801 202.5625 77.875 C202.90860321 77.10095825 203.25470642 76.3269165 203.61129761 75.52941895 C205.35982065 71.61870647 207.10799722 67.70783925 208.85595703 63.796875 C214.30598039 51.60294461 219.75926194 39.41047159 225.21678162 27.21989441 C227.15785891 22.88357289 229.09559355 18.54577618 231.03125 14.20703125 C231.85407166 12.36714501 232.67697817 10.52729671 233.5 8.6875 C234.03367187 7.48746338 234.03367187 7.48746338 234.578125 6.26318359 C236.88617093 1.11382907 236.88617093 1.11382907 238 0 C250.54 0 263.08 0 276 0 C276 89.1 276 178.2 276 270 C264.12 270 252.24 270 240 270 C239.67 204.66 239.34 139.32 239 72 C229.1 94.275 229.1 94.275 219 117 C210.5 136 210.5 136 206.34375 145.28125 C201.54132603 156.01141842 196.77104074 166.75585079 192 177.5 C183.68461193 196.22471505 175.33520817 214.93394078 166.95751953 233.63085938 C165.32021119 237.28492582 163.68391249 240.9394433 162.04795837 244.59411621 C160.81971722 247.33778995 159.59106569 250.08127974 158.36227417 252.82470703 C157.7935718 254.09451042 157.22498602 255.36436604 156.65652466 256.63427734 C155.88602544 258.35533386 155.1149056 260.07611249 154.34375 261.796875 C153.69696289 263.24078613 153.69696289 263.24078613 153.03710938 264.71386719 C152.38359439 266.15443083 151.70743275 267.58513451 151 269 C142.42 269 133.84 269 125 269 C115.50947684 247.95388614 106.04558389 226.89690129 96.68261719 205.79370117 C92.72486719 196.87433737 88.74868215 187.96361489 84.75 179.0625 C78.8050677 165.82756867 72.91904087 152.56675149 67.03335571 139.3053894 C59.95652976 123.3640161 52.82339267 107.4486217 45.64770508 91.55151367 C45.10936539 90.35813133 45.10936539 90.35813133 44.56015015 89.14064026 C43.89860194 87.67440681 43.23648432 86.20843006 42.57363892 84.74278259 C42.27726532 84.08597 41.98089172 83.42915741 41.67553711 82.75244141 C41.42275497 82.1931192 41.16997284 81.633797 40.90953064 81.05752563 C39.57999254 78.04986585 38.29537107 75.0225325 37 72 C36.67 137.34 36.34 202.68 36 270 C24.12 270 12.24 270 0 270 C0 180.9 0 91.8 0 0 Z " fill="#FC004E" transform="translate(112,116)"/>
</svg>
